<?xml version="1.0" encoding="utf-8"?>
<!-- Generator: Adobe Illustrator 26.5.0, SVG Export Plug-In . SVG Version: 6.00 Build 0)  -->
<svg version="1.1" baseProfile="basic" id="Шар_1"
	 xmlns="http://www.w3.org/2000/svg" xmlns:xlink="http://www.w3.org/1999/xlink" x="0px" y="0px" viewBox="0 0 841.89 841.89"
	 xml:space="preserve">
<g>
	<path fill="#294185" d="M216.07,493.94c19.85,11.44,37.07,24.09,56.94,31.88c5.91,2.32,11.71,5.28,17.85,6.59
		c9.01,1.93,12.92,7.55,15.16,15.79c6.22,22.98,16.89,43.84,30.89,63.06c2.36,3.23,6.36,6.64,4.55,10.82
		c-1.99,4.59-7.31,2.67-11.18,2.91c-29.4,1.83-57.02-5.49-83.84-16.72c-6.16-2.58-10.48-6.91-13.22-13.04
		C219.05,563.52,213.2,530.42,216.07,493.94z"/>
	<path fill="#4064AB" d="M478.08,671.82c-30.85-4.63-59.19-13.74-84.72-30.52c-6.65-4.37-6.43-8.99,0.46-12.65
		c23.22-12.35,45.26-26.38,65.18-43.66c3.26-2.82,7.1-3.69,11.55-2.28c25.17,7.99,50.97,7.51,76.89,5.46
		c3.49-0.28,7.87-2.73,10.3,1.16c1.96,3.14-0.81,6.49-2.48,9.31c-15.27,25.75-34.93,47.71-58.05,66.65
		C491.37,670.08,484.18,670.6,478.08,671.82z"/>
	<path fill="#294185" d="M254.21,280.2c0,17.45-0.15,33.42,0.05,49.39c0.15,12.75,0.84,25.57,5.04,37.69c2.08,6,0.37,9.49-3.73,13.7
		c-18.98,19.44-34.79,41.1-44.53,66.75c-2.52,6.62-5.64,7.41-9.68,1.08c-17.83-27.96-28.55-58.32-31.07-91.47
		c-0.3-3.94,1.05-7.39,3.15-10.54C193.3,317.02,220.52,296.2,254.21,280.2z"/>
	<path fill="#9AAED8" d="M627.45,332.99c-0.46,2.3,0.39,7.55-3.35,9.47c-3.31,1.7-7.06-1.73-9.95-3.9
		c-20-15.05-42.82-24.36-66.11-32.67c-4.61-1.64-8.11-3.73-9.4-8.55c-6.64-24.89-18.38-47.27-33.08-68.28
		c-2.46-3.51-6.21-8.11-3.25-12.26c2.88-4.03,8.63-4.23,13.48-3.7c22.65,2.47,45.08,5.96,66.85,13.22c17.39,5.8,28.41,17.13,34,34.4
		C624.08,283.7,625.84,307.51,627.45,332.99z"/>
	<path fill="#6A87C3" d="M636.13,384.88c15.62,23.35,25.29,47.45,32.83,73.15c6.97,23.73-0.87,40.43-17.1,55.93
		c-18.95,18.1-38.83,34.79-64.26,45.54c-1.27-18.89,4.42-36.93-0.14-54.4c-7.11-27.22-2.8-49.92,18.43-70.32
		C619.49,421.72,625.25,402.3,636.13,384.88z"/>
	<path fill="#294185" d="M205.74,582.03c-58.15-48.71-75.74-127.98-52.12-196.89c4.33,2.67,4.81,7.53,5.91,11.54
		c7.02,25.62,19.15,48.68,34.61,70.06c5.34,7.39,7.36,15.07,6.23,24.21c-3.3,26.7-0.62,53.11,5.09,79.28
		C206.24,573.83,207.56,577.37,205.74,582.03z"/>
	<path fill="#294185" d="M314.97,172.74c0.07,4.22-2.93,6.84-5.42,9.4c-17.91,18.47-31.43,39.84-42.06,63.14
		c-3.98,8.71-9.37,15.38-18.72,19.44c-27.62,11.98-51.28,30.28-74.66,50.31C172.68,257.49,258.4,171.78,314.97,172.74z"/>
	<path fill="#294185" d="M360.45,539.9c20.89-6.29,39.86,1.73,57.14,17.03c6.05,5.36,13.78,8.9,20.95,12.9
		c5.11,2.85,6.82,5.57,1.58,9.91c-20.4,16.88-43.34,29.24-68.09,38.41c-3.61,1.34-6.23,0.4-8.9-2.42
		c-18.29-19.3-31.49-41.63-40.28-66.67c-2.42-6.9-0.52-9.71,7.13-9.28C339.31,540.29,348.7,539.9,360.45,539.9z"/>
	<path fill="#4064AB" d="M452.27,687.07c-63.1,23.68-146.89,6.29-193.25-52.36c5.04-2.51,9.47,0.11,13.88,1.09
		c25.86,5.75,51.94,7.33,78.25,4.21c6.22-0.74,12.11-0.31,17.11,3.58c23.04,17.92,48.59,30.82,76.58,39
		c2.13,0.62,4.15,1.72,6.14,2.76C451.55,685.64,451.85,686.47,452.27,687.07z"/>
	<path fill="#6A87C3" d="M667.62,525.4c-7.25,68.5-73.14,133.25-141.85,141.96c-0.98-4.01,2.11-6.13,4.29-8.23
		c20.03-19.33,34.18-42.6,45.35-67.79c2.92-6.58,7.04-11.68,13.47-14.35c27.74-11.51,51.42-29.05,73.72-48.75
		C663.9,527.1,665.69,526.47,667.62,525.4z"/>
	<path fill="#9AAED8" d="M641.52,330.45c0.88-23.02-0.4-41.99-4.4-60.78c-0.61-2.86-4.05-7.05-0.08-9.08
		c4.06-2.07,6.58,2.5,9.06,5.02c17.62,17.85,30.25,39.17,39.96,61.93c16.01,37.54,14.45,76.57,6.78,115.73
		c-0.43,2.18-1.3,4.3-2.18,6.36c-0.73,1.71-1.75,3.51-3.95,3.36c-2.56-0.17-2.34-2.6-2.73-4.25c-6.89-29.26-20.36-55.28-38.39-79.16
		c-3.46-4.59-4.28-10.22-4.13-16.03C641.69,344.57,641.52,335.57,641.52,330.45z"/>
	<path fill="#294185" d="M303.23,461.01c-1.81,14.52-4.2,31.59-5.93,48.72c-0.67,6.6-2.93,6.98-8.61,5.07
		c-22.38-7.55-41.4-20.67-59.35-35.44c-5.76-4.73-7.81-11.4-4.95-19.31c8.25-22.82,20.91-42.96,36.21-61.6
		c3.83-4.66,7.4-5,10.23,0.63c9.08,18.1,19.24,35.53,31.36,51.78C303.97,453.25,303.43,455.81,303.23,461.01z"/>
	<path fill="#4064AB" d="M571.83,520.61c0.06,11.24-0.52,22.4-2.3,33.55c-1.34,8.37-5.25,13.57-13.73,15.45
		c-24.14,5.35-48.17,4.84-72.29-0.25c-6.85-1.44-7.59-4.01-4.31-9.83c8.24-14.64,16.04-29.52,23.99-44.31
		c2.73-5.08,6.65-9.05,11.59-11.91c14.23-8.25,29.09-15.17,44.41-21.19c6.74-2.65,9.36-0.9,10.71,6.07
		C571.99,498.96,571.71,509.77,571.83,520.61z"/>
	<path fill="#6A87C3" d="M540.08,366.58c-0.67-12.06,1.93-23.87,2.5-35.82c0.35-7.27,3.41-8.91,10.2-6.17
		c22.34,9.01,42.79,21.23,62.13,35.46c5.09,3.75,5.17,8.77,3.83,14.12c-6.41,25.69-20.08,47.31-37.54,66.81
		c-4.21,4.71-7.1,4.3-9.87-1.47c-7.63-15.93-17.66-30.41-28-44.63C536.75,385.82,541.28,375.97,540.08,366.58z"/>
	<path fill="#9AAED8" d="M473.3,299.82c-16.64,4.5-30.38-2.59-43.39-13.48c-7.12-5.96-15.53-10.4-23.48-15.31
		c-7.39-4.56-8.25-9.38-0.83-14.52c19.43-13.45,39.2-26.25,61.89-33.84c5.39-1.8,9.1-1.21,12.94,3.03
		c16.8,18.57,28.55,40.16,38.36,62.96c2.9,6.74,0.87,9.94-6.52,9.86C499.53,298.39,486.94,301.54,473.3,299.82z"/>
	<path fill="#222B57" d="M304.16,428.96c-6.87-11.99-13.04-23.61-20.07-34.68c-3.84-6.04-2.29-13.69,1.45-15.03
		c10.68-3.83,17.02-14.07,28.4-16.71c6.89-1.6,8.61,0.27,7.62,6.07C318.09,389.13,313.51,409.38,304.16,428.96z"/>
	<path fill="#294185" d="M415.43,533.36c22.87-6.22,44.6-12.13,68.7-18.69c-6.32,17.48-15.63,30.61-25.44,43.43
		c-1.26,1.65-3.37,1.94-5.08,1.01C440.35,551.93,426.16,546.05,415.43,533.36z"/>
	<path fill="#294185" d="M319.2,473.97c16.02,15.97,32.28,32.17,49.29,49.13c-15.05-0.04-30.08,0.51-45.15-1.31
		c-6.74-0.81-7.11-6.04-7.6-10.64C314.33,498.05,316.77,485.27,319.2,473.97z"/>
	<path fill="#4064AB" d="M519.08,473.64c4.15-17.3,8.38-35.46,12.92-53.54c1.5-5.99,4.81-6.07,8.16-1.24
		c7.04,10.14,12.73,21.04,17.33,32.49c1.92,4.78,0.31,8.77-3.79,11.76c-9.08,6.61-18.98,11.66-29.36,15.95
		C518.66,481.41,518.82,478.48,519.08,473.64z"/>
	<path fill="#6A87C3" d="M523.11,368.26c-16.47-16.16-30.89-30.16-45.13-44.34c-4.35-4.33-3.43-7.23,3.04-7.3
		c11.62-0.12,23.25-0.05,34.87-0.21c7.09-0.1,8.7,4.84,9.58,10.24C527.58,339.75,524.16,352.4,523.11,368.26z"/>
	<path fill="#9AAED8" d="M364.23,326.31c-5.17,1.61-5.17-1.94-3.89-4.77c5.55-12.28,11.68-24.3,21.11-34.16
		c4.02-4.2,9.1-3.11,13.48-0.47c8.96,5.4,17.78,11.05,26.47,16.88c2.66,1.78,6.68,4.77,0.01,6.67
		C402.39,315.88,383.3,321.05,364.23,326.31z"/>
	<path fill="#294185" d="M382.37,257.57c1.13-0.61,2.25-1.21,3.38-1.82C385,257.05,384,257.89,382.37,257.57z"/>
	<path fill="#294185" d="M386.82,255.09c0.76-0.67,1.52-1.34,2.29-2.01C388.34,253.74,387.58,254.41,386.82,255.09z"/>
	<path fill="#222B57" d="M568.55,201.65c-3.53,2.31-7.35,1.17-10.84,0.44c-25.18-5.29-50.47-5.31-75.84-1.87
		c-9.49,1.29-18,0.29-26.43-5.46c-24.88-16.96-52.97-27.2-82.4-36.28C420.93,126.56,539.17,153.29,568.55,201.65z"/>
	<path fill="#222B57" d="M458.42,208.46c-15.09,8.77-28.96,16.67-42.67,24.87c-10.94,6.54-21.68,13.58-30.05,23.31
		c-4.14,4.81-8.02,5.1-13.72,3.66c-26.35-6.63-53.02-9.41-80.09-4.94c-6.99,1.15-9.24-1.15-5.8-7.82
		c15.2-29.47,36.06-54,63.45-72.84c3.25-2.24,6.92-2.81,10.7-2.57C395.97,174.33,427.66,187.38,458.42,208.46z"/>
	<path fill="#222B57" d="M324.95,343.63c-13.5,5.64-29.5,12.04-45.23,19.05c-6.06,2.7-7.52,0.92-8.68-4.96
		c-4.57-23.18-2.62-46.2,1.28-69.12c1.25-7.35,6.02-12.44,14.31-13.89c23.91-4.17,47.67-3.18,71.45,0.84
		c5.95,1.01,8.01,3.94,4.53,9.19c-11.2,16.87-21.29,34.34-29.37,52.93C332.05,340.42,329.55,341.22,324.95,343.63z"/>
</g>
</svg>
